<svg width="50" height="50" viewBox="0 0 50 50" fill="none" xmlns="http://www.w3.org/2000/svg">
<path d="M25 2C37.7025 2 48 12.2975 48 25C48 37.7025 37.7025 48 25 48C12.2975 48 2 37.7025 2 25C2 12.2975 12.2975 2 25 2Z" stroke="white" stroke-width="4"/>
<path d="M39.3722 26.3764C40.2093 25.5393 40.2093 24.1798 39.3722 23.3427L28.6573 12.6278C27.8202 11.7907 26.4607 11.7907 25.6236 12.6278C24.7865 13.4649 24.7865 14.8244 25.6236 15.6615L32.6888 22.7199H12.143C10.9576 22.7199 10 23.6775 10 24.8629C10 26.0482 10.9576 27.0059 12.143 27.0059H32.6821L25.6303 34.0643C24.7932 34.9014 24.7932 36.2608 25.6303 37.0979C26.4674 37.935 27.8269 37.935 28.664 37.0979L39.3789 26.3831L39.3722 26.3764Z" fill="#F2F2F2"/>
</svg>
