<svg width="16" height="16" viewBox="0 0 16 16" fill="none" xmlns="http://www.w3.org/2000/svg">
<path d="M12.8117 8.47065C13.0628 8.21033 13.0628 7.78758 12.8117 7.52727L9.59719 4.19524C9.34606 3.93492 8.93822 3.93492 8.68709 4.19524C8.43596 4.45555 8.43596 4.8783 8.68709 5.13862L10.8066 7.33359H4.64289C4.28729 7.33359 4 7.63139 4 8C4 8.36861 4.28729 8.66641 4.64289 8.66641H10.8046L8.6891 10.8614C8.43797 11.1217 8.43797 11.5444 8.6891 11.8048C8.94023 12.0651 9.34807 12.0651 9.5992 11.8048L12.8137 8.47273L12.8117 8.47065Z" fill="#F2F2F2"/>
<circle cx="8" cy="8" r="7.5" transform="matrix(-1 0 0 1 16 0)" stroke="white"/>
</svg>
