<svg width="50" height="50" viewBox="0 0 50 50" fill="none" xmlns="http://www.w3.org/2000/svg">
<path d="M25 2C12.2975 2 2 12.2975 2 25C2 37.7025 12.2975 48 25 48C37.7025 48 48 37.7025 48 25C48 12.2975 37.7025 2 25 2Z" stroke="white" stroke-width="4"/>
<path d="M10.6278 26.3764C9.79072 25.5393 9.79072 24.1798 10.6278 23.3427L21.3427 12.6278C22.1798 11.7907 23.5393 11.7907 24.3764 12.6278C25.2135 13.4649 25.2135 14.8244 24.3764 15.6615L17.3112 22.7199H37.857C39.0424 22.7199 40 23.6775 40 24.8629C40 26.0482 39.0424 27.0059 37.857 27.0059H17.3179L24.3697 34.0643C25.2068 34.9014 25.2068 36.2608 24.3697 37.0979C23.5326 37.935 22.1731 37.935 21.336 37.0979L10.6211 26.3831L10.6278 26.3764Z" fill="#F2F2F2"/>
</svg>
