<svg width="51" height="50" viewBox="0 0 51 50" fill="none" xmlns="http://www.w3.org/2000/svg">
<path d="M17.0583 40.2599C17.0583 40.4667 16.8218 40.6321 16.5236 40.6321C16.1843 40.6631 15.9478 40.4977 15.9478 40.2599C15.9478 40.0531 16.1843 39.8877 16.4825 39.8877C16.7909 39.8567 17.0583 40.0221 17.0583 40.2599ZM13.8605 39.7947C13.7885 40.0014 13.9942 40.2392 14.3026 40.3013C14.57 40.4047 14.8784 40.3013 14.9401 40.0945C15.0018 39.8877 14.8065 39.6499 14.498 39.5569C14.2306 39.4845 13.9325 39.5879 13.8605 39.7947ZM18.4052 39.6189C18.1071 39.6913 17.9014 39.8877 17.9323 40.1255C17.9631 40.3323 18.2304 40.4667 18.5389 40.3943C18.8371 40.322 19.0427 40.1255 19.0119 39.9187C18.981 39.7223 18.7034 39.5879 18.4052 39.6189ZM25.171 0C10.9095 0 0 10.8869 0 25.2271C0 36.693 7.17702 46.5047 17.4284 49.9579C18.7446 50.1957 19.2073 49.3789 19.2073 48.7069C19.2073 48.0658 19.1764 44.5299 19.1764 42.3587C19.1764 42.3587 11.9788 43.9096 10.4673 39.2777C10.4673 39.2777 9.29516 36.2691 7.60887 35.4937C7.60887 35.4937 5.25423 33.8704 7.77339 33.9015C7.77339 33.9015 10.3337 34.1082 11.7423 36.5689C13.9942 40.5598 17.7677 39.4121 19.2381 38.7298C19.4746 37.0755 20.1429 35.9279 20.8833 35.2455C15.1355 34.6045 9.33629 33.7671 9.33629 23.821C9.33629 20.9778 10.1177 19.551 11.7629 17.7313C11.4956 17.0593 10.6216 14.2884 12.0302 10.7112C14.1792 10.0391 19.125 13.5027 19.125 13.5027C21.1815 12.9237 23.3921 12.6239 25.5823 12.6239C27.7724 12.6239 29.9831 12.9237 32.0395 13.5027C32.0395 13.5027 36.9853 10.0288 39.1343 10.7112C40.5429 14.2988 39.669 17.0593 39.4016 17.7313C41.0468 19.5613 42.0544 20.9881 42.0544 23.821C42.0544 33.7981 35.9982 34.5942 30.2504 35.2455C31.1964 36.0623 31.9984 37.6131 31.9984 40.0428C31.9984 43.527 31.9675 47.8384 31.9675 48.6862C31.9675 49.3582 32.4405 50.175 33.7464 49.9372C44.0286 46.5047 51 36.693 51 25.2271C51 10.8869 39.4325 0 25.171 0ZM9.99435 35.6591C9.86069 35.7625 9.89153 36.0003 10.0663 36.1967C10.2308 36.3621 10.4673 36.4345 10.601 36.3001C10.7347 36.1967 10.7038 35.9589 10.529 35.7625C10.3645 35.5971 10.128 35.5247 9.99435 35.6591ZM8.88387 34.8216C8.8119 34.956 8.91472 35.1215 9.12036 35.2249C9.28488 35.3282 9.49052 35.2972 9.5625 35.1525C9.63448 35.0181 9.53165 34.8526 9.32601 34.7493C9.12036 34.6872 8.95585 34.7182 8.88387 34.8216ZM12.2153 38.5023C12.0508 38.6367 12.1125 38.9469 12.349 39.1433C12.5855 39.3811 12.8837 39.4121 13.0173 39.2467C13.151 39.1123 13.0893 38.8021 12.8837 38.6057C12.6575 38.3679 12.349 38.3369 12.2153 38.5023ZM11.0431 36.9825C10.8786 37.0859 10.8786 37.3547 11.0431 37.5925C11.2077 37.8303 11.4853 37.9337 11.619 37.8303C11.7835 37.6959 11.7835 37.427 11.619 37.1893C11.475 36.9515 11.2077 36.8481 11.0431 36.9825Z" fill="#B93E3B"/>
</svg>
