<svg width="30" height="30" viewBox="0 0 30 30" fill="none" xmlns="http://www.w3.org/2000/svg">
<path d="M30 15C30 23.2843 23.2843 30 15 30C6.71573 30 0 23.2843 0 15C0 6.71573 6.71573 0 15 0C23.2843 0 30 6.71573 30 15Z" fill="#B93E3B"/>
<path d="M6.65625 7.2C5.63145 7.2 4.8 8.03984 4.8 9.075C4.8 9.66484 5.07457 10.2195 5.5425 10.575L13.9575 16.95C14.3984 17.282 15.0016 17.282 15.4425 16.95L23.8575 10.575C24.3254 10.2195 24.6 9.66484 24.6 9.075C24.6 8.03984 23.7686 7.2 22.7437 7.2H6.65625ZM4.8 11.575V19.7C4.8 21.0789 5.90988 22.2 7.275 22.2H22.125C23.4901 22.2 24.6 21.0789 24.6 19.7V11.575L16.185 17.95C15.3033 18.618 14.0967 18.618 13.215 17.95L4.8 11.575Z" fill="#F2F2F2"/>
</svg>
