<svg width="21" height="16" viewBox="0 0 21 16" fill="none" xmlns="http://www.w3.org/2000/svg">
<path d="M2.6563 0.200012C1.63149 0.200012 0.800049 1.03986 0.800049 2.07501C0.800049 2.66486 1.07462 3.21954 1.54255 3.57501L9.95755 9.95001C10.3984 10.282 11.0017 10.282 11.4425 9.95001L19.8575 3.57501C20.3255 3.21954 20.6 2.66486 20.6 2.07501C20.6 1.03986 19.7686 0.200012 18.7438 0.200012H2.6563ZM0.800049 4.57501V12.7C0.800049 14.0789 1.90993 15.2 3.27505 15.2H18.125C19.4902 15.2 20.6 14.0789 20.6 12.7V4.57501L12.185 10.95C11.3033 11.618 10.0968 11.618 9.21505 10.95L0.800049 4.57501Z" fill="#F2F2F2"/>
</svg>
