<svg width="50" height="50" viewBox="0 0 50 50" fill="none" xmlns="http://www.w3.org/2000/svg">
<path d="M50 25C50 38.8071 38.8071 50 25 50C11.1929 50 0 38.8071 0 25C0 11.1929 11.1929 0 25 0C38.8071 0 50 11.1929 50 25Z" fill="#B93E3B"/>
<path d="M11.0938 12C9.38574 12 8 13.3997 8 15.125C8 16.1081 8.45762 17.0326 9.2375 17.625L23.2625 28.25C23.9973 28.8034 25.0027 28.8034 25.7375 28.25L39.7625 17.625C40.5424 17.0326 41 16.1081 41 15.125C41 13.3997 39.6143 12 37.9062 12H11.0938ZM8 19.2917V32.8333C8 35.1315 9.8498 37 12.125 37H36.875C39.1502 37 41 35.1315 41 32.8333V19.2917L26.975 29.9167C25.5055 31.0299 23.4945 31.0299 22.025 29.9167L8 19.2917Z" fill="#F2F2F2"/>
</svg>
