<svg width="33" height="25" viewBox="0 0 33 25" fill="none" xmlns="http://www.w3.org/2000/svg">
<path d="M3.09375 0C1.38574 0 0 1.39974 0 3.125C0 4.10807 0.457617 5.03255 1.2375 5.625L15.2625 16.25C15.9973 16.8034 17.0027 16.8034 17.7375 16.25L31.7625 5.625C32.5424 5.03255 33 4.10807 33 3.125C33 1.39974 31.6143 0 29.9062 0H3.09375ZM0 7.29167V20.8333C0 23.1315 1.8498 25 4.125 25H28.875C31.1502 25 33 23.1315 33 20.8333V7.29167L18.975 17.9167C17.5055 19.0299 15.4945 19.0299 14.025 17.9167L0 7.29167Z" fill="#F2F2F2"/>
</svg>
