<svg width="50" height="50" viewBox="0 0 50 50" fill="none" xmlns="http://www.w3.org/2000/svg">
<path d="M50 25C50 38.8071 38.8071 50 25 50C11.1929 50 0 38.8071 0 25C0 11.1929 11.1929 0 25 0C38.8071 0 50 11.1929 50 25Z" fill="#B93E3B"/>
<path d="M20.0514 13.2022C19.6754 12.2941 18.6843 11.8107 17.7371 12.0695L13.4404 13.2413C12.5908 13.4756 12 14.2471 12 15.126C12 27.2055 21.7945 37 33.874 37C34.7529 37 35.5244 36.4092 35.7587 35.5596L36.9305 31.2629C37.1893 30.3157 36.7059 29.3246 35.7978 28.9486L31.1105 26.9956C30.3146 26.6635 29.3918 26.893 28.8498 27.5619L26.8773 29.9691C23.4399 28.3432 20.6568 25.5601 19.0309 22.1227L21.4381 20.155C22.107 19.6082 22.3365 18.6903 22.0044 17.8944L20.0514 13.2071V13.2022Z" fill="#F2F2F2"/>
</svg>
