<svg width="16" height="16" viewBox="0 0 16 16" fill="none" xmlns="http://www.w3.org/2000/svg">
<path d="M5.03079 0.921344C4.80522 0.376446 4.21052 0.08642 3.64218 0.241687L1.06417 0.944781C0.554428 1.0854 0.199951 1.54827 0.199951 2.07559C0.199951 9.32332 6.07665 15.2 13.3244 15.2C13.8517 15.2 14.3146 14.8455 14.4552 14.3358L15.1583 11.7578C15.3135 11.1894 15.0235 10.5947 14.4786 10.3692L11.6662 9.19735C11.1887 8.99814 10.635 9.13583 10.3099 9.53718L9.12632 10.9814C7.06391 10.0059 5.39406 8.33606 4.41852 6.27365L5.86279 5.09304C6.26414 4.76493 6.40183 4.21417 6.20262 3.73665L5.03079 0.924274V0.921344Z" fill="#F2F2F2"/>
</svg>
