<svg width="30" height="30" viewBox="0 0 30 30" fill="none" xmlns="http://www.w3.org/2000/svg">
<path d="M30 15C30 23.2843 23.2843 30 15 30C6.71573 30 0 23.2843 0 15C0 6.71573 6.71573 0 15 0C23.2843 0 30 6.71573 30 15Z" fill="#B93E3B"/>
<path d="M12.0308 7.92133C11.8053 7.37643 11.2106 7.08641 10.6422 7.24167L8.06422 7.94477C7.55448 8.08539 7.2 8.54826 7.2 9.07558C7.2 16.3233 13.0767 22.2 20.3244 22.2C20.8517 22.2 21.3146 21.8455 21.4552 21.3358L22.1583 18.7578C22.3136 18.1894 22.0236 17.5947 21.4787 17.3692L18.6663 16.1973C18.1888 15.9981 17.6351 16.1358 17.3099 16.5372L16.1264 17.9814C14.064 17.0059 12.3941 15.336 11.4186 13.2736L12.8628 12.093C13.2642 11.7649 13.4019 11.2142 13.2027 10.7366L12.0308 7.92426V7.92133Z" fill="#F2F2F2"/>
</svg>
